<svg width="200" height="200" xmlns="http://www.w3.org/2000/svg">
    <!-- الدائرة الخارجية -->
    <circle cx="100" cy="100" r="90" fill="#e8d0b5" />
    
    <!-- الدائرة الداخلية -->
    <circle cx="100" cy="100" r="70" fill="#1a5b8f" />
    
    <!-- رمز المصباح (يمثل الأفكار والابتكار) -->
    <path d="M100 40 L100 60 M80 70 Q100 40 120 70 Q130 85 120 100 Q110 115 90 115 Q80 115 70 100 Q60 85 80 70" 
          stroke="#e8d0b5" stroke-width="5" fill="none" />
    
    <!-- قاعدة المصباح -->
    <path d="M90 115 L90 130 L110 130 L110 115" stroke="#e8d0b5" stroke-width="5" fill="none" />
    
    <!-- خطوط تمثل الإشعاع والنمو -->
    <line x1="40" y1="100" x2="60" y2="100" stroke="#e8d0b5" stroke-width="3" />
    <line x1="140" y1="100" x2="160" y2="100" stroke="#e8d0b5" stroke-width="3" />
    <line x1="100" y1="40" x2="100" y2="20" stroke="#e8d0b5" stroke-width="3" />
    <line x1="100" y1="160" x2="100" y2="180" stroke="#e8d0b5" stroke-width="3" />
    
    <!-- خطوط قطرية تمثل الإشعاع والنمو -->
    <line x1="70" y1="70" x2="55" y2="55" stroke="#e8d0b5" stroke-width="3" />
    <line x1="130" y1="70" x2="145" y2="55" stroke="#e8d0b5" stroke-width="3" />
    <line x1="70" y1="130" x2="55" y2="145" stroke="#e8d0b5" stroke-width="3" />
    <line x1="130" y1="130" x2="145" y2="145" stroke="#e8d0b5" stroke-width="3" />
    
    <!-- نقاط تمثل الاتصال والشبكات -->
    <circle cx="55" cy="55" r="3" fill="#e8d0b5" />
    <circle cx="145" cy="55" r="3" fill="#e8d0b5" />
    <circle cx="55" cy="145" r="3" fill="#e8d0b5" />
    <circle cx="145" cy="145" r="3" fill="#e8d0b5" />
    <circle cx="40" cy="100" r="3" fill="#e8d0b5" />
    <circle cx="160" cy="100" r="3" fill="#e8d0b5" />
    <circle cx="100" cy="20" r="3" fill="#e8d0b5" />
    <circle cx="100" cy="180" r="3" fill="#e8d0b5" />
</svg>
